<?xml version="1.0" encoding="iso-8859-1"?>
<!-- Uploaded to: SVG Repo, www.svgrepo.com, Generator: SVG Repo Mixer Tools -->
<svg height="800px" width="800px" version="1.1" id="Layer_1" xmlns="http://www.w3.org/2000/svg" xmlns:xlink="http://www.w3.org/1999/xlink" 
	 viewBox="0 0 512 512" xml:space="preserve">
<g>
	<path style="fill:#19BA9B;" d="M201.715,157.697c-4.829,0-8.745-3.915-8.745-8.745v-29.387c0-4.83,3.915-8.745,8.745-8.745
		c4.83,0,8.745,3.915,8.745,8.745v29.387C210.46,153.782,206.545,157.697,201.715,157.697z"/>
	<path style="fill:#19BA9B;" d="M310.28,157.697c-4.829,0-8.745-3.915-8.745-8.745v-29.387c0-4.83,3.915-8.745,8.745-8.745
		s8.745,3.915,8.745,8.745v29.387C319.025,153.782,315.11,157.697,310.28,157.697z"/>
</g>
<path style="fill:#70E5CF;" d="M423.567,222.261l-1.189-9.771l-69.271-14.808l-8.896-57.984H167.785l-8.908,57.984L89.618,212.49
	l-11.625,95.308L63.628,425.679l196.27,18.437l188.481-18.425L423.567,222.261z"/>
<path style="fill:#FFFFFF;" d="M346.064,292.115c0,49.729-40.331,90.061-90.061,90.061c-8.605,0-16.93-1.201-24.8-3.451
	c-37.685-10.774-65.272-45.473-65.272-86.609c0-49.753,40.32-90.061,90.072-90.061c18.597,0,35.889,5.643,50.242,15.309
	C330.265,233.536,346.064,260.972,346.064,292.115z"/>
<path style="fill:#E6E6E6;" d="M250.636,378.725c-37.685-10.774-65.272-45.473-65.272-86.609c0-46.47,35.179-84.69,80.361-89.532
	c-3.195-0.343-6.436-0.528-9.722-0.528c-49.753,0-90.072,40.308-90.072,90.061c0,41.136,27.587,75.836,65.272,86.609
	c7.87,2.25,16.196,3.451,24.801,3.451c3.268,0,6.493-0.184,9.672-0.525C260.517,381.097,255.49,380.112,250.636,378.725z"/>
<g>
	<polygon style="fill:#35D8B9;" points="179.282,193.018 188.19,139.698 167.785,139.698 158.877,197.682 	"/>
	<polygon style="fill:#35D8B9;" points="89.618,212.49 77.993,307.798 63.628,425.679 259.898,444.115 269.897,443.138 
		84.032,425.679 98.397,307.798 110.401,208.258 	"/>
</g>
<g>
	<path style="fill:#F95428;" d="M256.003,232.918c-3.542,0-6.413-2.871-6.413-6.413v-23.285c0-3.542,2.871-6.413,6.413-6.413
		c3.542,0,6.413,2.871,6.413,6.413v23.285C262.416,230.046,259.546,232.918,256.003,232.918z"/>
	<path style="fill:#F95428;" d="M256.003,386.84c-3.542,0-6.413-2.871-6.413-6.413v-22.702c0-3.542,2.871-6.413,6.413-6.413
		c3.542,0,6.413,2.871,6.413,6.413v22.702C262.416,383.969,259.546,386.84,256.003,386.84z"/>
	<path style="fill:#F95428;" d="M344.899,298.528h-23.296c-3.542,0-6.413-2.871-6.413-6.413s2.871-6.413,6.413-6.413h23.296
		c3.542,0,6.413,2.871,6.413,6.413S348.44,298.528,344.899,298.528z"/>
	<path style="fill:#F95428;" d="M190.394,298.528h-22.422c-3.542,0-6.413-2.871-6.413-6.413s2.871-6.413,6.413-6.413h22.422
		c3.542,0,6.413,2.871,6.413,6.413S193.936,298.528,190.394,298.528z"/>
	<path style="fill:#F95428;" d="M277.341,297.945h-21.338c-3.219,0-5.83-2.611-5.83-5.83v-34.21c0-3.219,2.611-5.83,5.83-5.83
		c3.219,0,5.83,2.611,5.83,5.83v28.38h15.508c3.219,0,5.83,2.611,5.83,5.83C283.171,295.335,280.56,297.945,277.341,297.945z"/>
</g>
<path style="fill:#70E5CF;" d="M508.179,152.676l-28.489-68.37l-38.846-10.071c-1.083-0.279-2.158-0.549-3.257-0.828
	c-1.407-0.356-2.831-0.711-4.255-1.052c-67.566-16.545-146.743-22.748-223.056-18.649c-16.792,0.905-33.446,2.305-49.806,4.2
	c-13.893,1.624-27.584,3.605-40.958,5.949s-26.446,5.036-39.116,8.099c-2.003,0.487-4.014,0.951-5.987,1.454
	c-1.09,0.271-2.182,0.541-3.257,0.828L32.309,84.307l-28.488,68.37L0,161.85l2.784,7.797l10.141,28.395l15.532-3.11l27.924-5.585
	l29.331-5.863l0.332-0.07l26.214-5.236l23.446-4.695l5.547-32.773l1.415-8.346l1.524-9.027l3.156-18.734
	c8.014-2.212,16.577-4.138,25.541-5.77c15.478-2.823,32.147-4.796,49.295-5.902c11.13-0.735,22.478-1.098,33.818-1.098
	c38.893,0,77.784,4.255,108.655,12.771l3.171,18.734l1.524,9.012l1.407,8.369l5.538,32.765l20.769,4.154l29.393,5.879l3.404,0.681
	l31.559,6.311l22.122,4.425v0.015l15.532,3.095l10.141-28.395l2.784-7.797L508.179,152.676z"/>
<g>
	<path style="fill:#35D8B9;" d="M24.355,169.647l-2.784-7.797l3.821-9.174l28.488-68.37l38.846-10.071
		c1.075-0.286,2.166-0.557,3.257-0.828c1.973-0.503,3.984-0.967,5.987-1.454c12.67-3.063,25.743-5.755,39.116-8.099
		c13.374-2.344,27.065-4.323,40.958-5.949c16.36-1.895,33.014-3.295,49.806-4.2c11.606-0.624,23.279-1.005,34.967-1.152
		c-18.875-0.237-37.793,0.145-56.537,1.152c-16.793,0.905-33.446,2.305-49.806,4.2c-13.893,1.624-27.584,3.605-40.958,5.949
		c-13.374,2.344-26.446,5.036-39.116,8.099c-2.003,0.487-4.014,0.951-5.987,1.454c-1.09,0.271-2.182,0.541-3.257,0.828
		L32.309,84.307l-28.488,68.37L0,161.85l2.784,7.797l10.141,28.395l15.532-3.11l4.6-0.92L24.355,169.647z"/>
	<path style="fill:#35D8B9;" d="M397.866,173.483l-5.538-32.765l-1.407-8.369l-1.524-9.012l-3.171-18.734
		c-30.871-8.516-69.763-12.771-108.655-12.771c-3.584,0-7.166,0.049-10.745,0.122c35.217,0.717,69.825,4.923,97.83,12.649
		l3.171,18.734l1.524,9.012l1.407,8.369l5.538,32.765l22.359,4.421L397.866,173.483z"/>
</g>
<g>
	<polygon style="fill:#19BA9B;" points="370.758,140.718 369.35,132.349 367.826,123.337 454.29,141.406 508.179,152.676 
		512,161.85 509.216,169.647 	"/>
	<polygon style="fill:#19BA9B;" points="2.784,169.647 0,161.85 3.821,152.676 70.498,138.738 144.189,123.337 142.666,132.364 
		141.251,140.71 	"/>
	<path style="fill:#19BA9B;" d="M256.003,390.921c-54.488,0-98.817-44.324-98.817-98.805s44.33-98.805,98.817-98.805
		c54.482,0,98.805,44.324,98.805,98.805C354.81,346.597,310.485,390.921,256.003,390.921z M256.003,210.799
		c-44.844,0-81.327,36.478-81.327,81.316s36.484,81.316,81.327,81.316c44.838,0,81.316-36.478,81.316-81.316
		C337.32,247.277,300.841,210.799,256.003,210.799z"/>
</g>
<polygon style="fill:#35D8B9;" points="459.409,425.69 469.367,459.516 42.628,459.516 52.598,425.69 448.379,425.69 "/>
<polygon style="fill:#19BA9B;" points="52.598,425.69 42.628,459.516 63.033,459.516 73.002,425.69 "/>
</svg>